<?xml version="1.0" encoding="UTF-8"?>
<svg id="Calque_1" data-name="Calque 1" xmlns="http://www.w3.org/2000/svg" viewBox="0 0 250 56.79">
  <defs>
    <style>
      .cls-1 {
        fill: #0c2231;
      }

      .cls-2 {
        fill: #be772a;
      }
    </style>
  </defs>
  <g>
    <path class="cls-1" d="M242.12,24.36v25.04c0,.59-.48,1.06-1.06,1.06h-5.66c-.59,0-1.06-.48-1.06-1.06v-24.73c0-3.4-.9-6.02-2.67-7.8-1.77-1.78-4.12-2.68-6.97-2.68-3.09,0-5.61.95-7.48,2.81-1.87,1.86-2.82,4.66-2.82,8.3v24.1c0,.59-.48,1.06-1.06,1.06h-5.66c-.59,0-1.06-.48-1.06-1.06v-24.73c0-3.38-.84-6-2.48-7.77-1.67-1.8-3.95-2.71-6.78-2.71-3.05,0-5.55.95-7.42,2.81-1.87,1.86-2.82,4.66-2.82,8.3v24.1c0,.59-.48,1.06-1.06,1.06h-5.66c-.59,0-1.06-.48-1.06-1.06V9.43c0-.59.48-1.06,1.06-1.06h5.35c.59,0,1.06.48,1.06,1.06v3.31c0,1.06,1.37,1.47,1.95.59h0c1.2-1.81,2.81-3.23,4.79-4.21,2-1,4.36-1.5,6.99-1.5s5.19.52,7.23,1.56c2,1.01,3.56,2.49,4.63,4.41h0c.38.69,1.35.73,1.8.09h0c1.35-1.95,3.16-3.45,5.36-4.48,2.23-1.05,4.79-1.57,7.6-1.57,2.36,0,4.47.36,6.31,1.07,1.84.71,3.42,1.76,4.71,3.17,2.61,2.84,3.94,7.05,3.94,12.52Z"/>
    <path class="cls-1" d="M98.95,9.88c-2.76-1.51-6.07-2.27-9.83-2.27s-7.07.76-9.83,2.27c-2.74,1.49-4.9,3.72-6.42,6.63-1.54,2.95-2.32,6.59-2.32,10.82v22.07c0,.59.48,1.06,1.06,1.06h5.54c.59,0,1.06-.48,1.06-1.06v-8.49c0-.59.48-1.06,1.06-1.06h19.59c.59,0,1.06.48,1.06,1.06v8.49c0,.59.48,1.06,1.06,1.06h2.88c.59,0,1.06-.48,1.06-1.06V16.01c0-.2-.05-.39-.16-.56-1.47-2.39-3.42-4.27-5.81-5.57ZM98.85,33.77h-19.59c-.59,0-1.06-.48-1.06-1.06v-6.32c0-3.92.97-6.96,2.88-9.03,1.94-2.09,4.62-3.15,7.97-3.15s5.98,1.06,7.94,3.15c1.94,2.07,2.92,5.11,2.92,9.04v6.32c0,.59-.48,1.06-1.06,1.06Z"/>
    <path class="cls-1" d="M137.29,11c-3.4-1.75-7.39-2.63-11.85-2.63h-17.33c-.59,0-1.06.48-1.06,1.06v39.98c0,.59.48,1.06,1.06,1.06h17.33c4.46,0,8.44-.88,11.85-2.63,2.51-1.29,4.63-2.98,6.31-5.07.15-.19.23-.43.23-.67v-25.37c0-.24-.08-.48-.23-.67-1.68-2.08-3.8-3.78-6.31-5.07ZM135.95,40.2c-2.74,2.65-6.44,3.99-10.99,3.99h-9.06c-.59,0-1.06-.48-1.06-1.06V15.7c0-.59.48-1.06,1.06-1.06h9.06c4.55,0,8.25,1.34,10.99,3.99,2.75,2.66,4.15,6.29,4.15,10.78s-1.4,8.12-4.15,10.78Z"/>
    <path class="cls-1" d="M172.87,10.22c-2.64-1.23-5.82-1.86-9.44-1.86h-16.41c-.59,0-1.06.48-1.06,1.06v39.98c0,.59.48,1.06,1.06,1.06h5.66c.59,0,1.06-.48,1.06-1.06v-10.07c0-.59.48-1.06,1.06-1.06h8.63c3.63,0,6.8-.62,9.44-1.83,1.54-.71,2.88-1.61,4-2.7.2-.2.31-.47.31-.76V13.69c0-.29-.11-.56-.32-.76-1.12-1.08-2.46-1.99-4-2.71ZM170.37,29.81c-.87.75-1.93,1.31-3.18,1.68-1.25.38-2.69.56-4.3.56h-8.08c-.59,0-1.06-.48-1.06-1.06v-15.36c0-.59.48-1.06,1.06-1.06h8.08c3.23,0,5.75.76,7.48,2.25,1.79,1.54,2.7,3.73,2.7,6.53s-.91,4.93-2.7,6.46Z"/>
  </g>
  <g>
    <path class="cls-1" d="M23.41,11.86c-1.17,3.78-2.71,7.46-3.84,11.25-1.22,4.11-1.6,6.52-.56,10.76.03.11.14.36-.06.33-3.24-5.14-5.11-10.96-7.34-16.58l-.06-.45,6.48-6.5c.36-.06,2.06,1.92,2.62,2.04.76.17,1.96-.75,2.75-.85Z"/>
    <path class="cls-1" d="M46.08,15.56l-14.9,4.12c-4.16-.49-8.23,1.62-10.62,4.96l-1.06,1.82c.91-4.74,3.07-8.09,7.52-10.08,4.66-2.08,9.64-3.69,14.33-5.72.46,0,4.35,4.14,4.74,4.9Z"/>
    <path class="cls-1" d="M25.26,51.31c2.18-2.44,5-4.19,7.41-6.37,3.53-3.2,6.7-7.29,7.35-12.15l1.25,15.26c-1.83-.5-2.83-1.02-4.65-.13-1.56.77-1.59,2.06-2.49,3.4h-8.88Z"/>
    <path class="cls-1" d="M11.32,42.92h14.12c4.15-.3,8.48-1.19,11.49-4.25l-1.42,2.01c-2.89,3.43-6.89,5.66-10.09,8.76-.5-.26-.98-.54-1.49-.77-.54-.24-2.57-1.26-2.96-1.29-1.01-.09-2.49,1.38-3.54,1.59l-6.1-6.05Z"/>
    <path class="cls-1" d="M24.61,40.19c.02.21-.33.08-.44.06-.83-.16-1.86-.54-2.67-.82-4.7-1.65-9.19-4.09-13.55-6.45l-.08-6.96c1.08-.54,2.8-.69,3.44-1.79l.65-1.47c1.12,2.58,2.4,5.14,3.8,7.59,2.14,3.75,4.78,8.02,8.85,9.85Z"/>
    <path class="cls-1" d="M51.42,26.13l-.02,7.01-2.76,1.78c-1.84-1.47-3.74-2.92-5.51-4.49-.76-.68-2.08-1.8-2.67-2.56-.65-.85-1.14-2.22-1.82-3.2s-1.56-1.79-2.38-2.69c5.01,1.46,9.95,3.4,15.15,4.14Z"/>
    <path class="cls-1" d="M42.38,47.93l-1.74-18.09,6.97,6.05c-.16.79-1.33,2.36-1.31,3.05.02.83,1.66,3.39,1.62,3.58l-5.54,5.41Z"/>
    <path class="cls-1" d="M33,7.61v4.96c-3.46,2.01-7.78,2.58-10.68,5.5l3.49-10.46h7.19Z"/>
    <path class="cls-2" d="M47.06,16.65c.14.14-1.26,2.42-1.09,2.88l1.86,4.85-13.84-4.3,13.08-3.43Z"/>
    <path class="cls-1" d="M29.95,41.5l-.94.2-2.49.24h-15.1c-.18-2.33-1.32-4.44-1.96-6.65,6.23,3.46,13.17,6.61,20.49,6.21Z"/>
  </g>
</svg>